# xmcd
#
# Track frame offsets:
#	151
#	15955
#	30026
#	45520
#	67806
#	80358
#	97036
#	113666
#	130141
#	148729
#	163156
#	186381
#	207150
#	223498
#	238201
#	251600
#	268129
#	283566
#	299044
#	317793
#
# Disc length: 4466
#
# Revision: 4
# Processed by: cddbd v1.5.1PL0 Copyright (c) Steve Scherf et al.
# Submitted via: OrangeCD 5.2
# Normalized: r3:DSETVAR1
#
DISCID=2d117014
DTITLE=Various Artist - Line Dance Fever 12
DYEAR=1900
DGENRE=Country
TTITLE0=Bekka and Billy - Patient Heart
TTITLE1=Watergate - Heart Of Asia
TTITLE2=MDF - Magic Carpet Ride
TTITLE3=T. Rex - Hot Love
TTITLE4=Mark Chesnut - Live A Little
TTITLE5=Billy Ray Cyrus - Trail Of Tears
TTITLE6=Dean Brothers - Memories Are Made Of This
TTITLE7=Scooch - For Sure
TTITLE8=Clay Walker - Live Laugh Love
TTITLE9=Bill Pinkney - Gonna Move Across The River
TTITLE10=The Fables - Cock O' The North
TTITLE11=MDO - Groove With Me Tonight
TTITLE12=Lee Ann Womack - I Keep Forgetting
TTITLE13=Olsen Brothers - Dreamworld
TTITLE14=Ronnie McDowell - Cry To Me
TTITLE15=Scooter Lee - J'ai du boogie
TTITLE16=Steve Holy - Don't Make Me Beg
TTITLE17=Rolf Harris - Fine Day
TTITLE18=Mary Griffin - Perfect Moment
TTITLE19=Rednex - The Way I Mate
EXTD=
EXTT0=
EXTT1=
EXTT2=
EXTT3=
EXTT4=
EXTT5=
EXTT6=
EXTT7=
EXTT8=
EXTT9=
EXTT10=
EXTT11=
EXTT12=
EXTT13=
EXTT14=
EXTT15=
EXTT16=
EXTT17=
EXTT18=
EXTT19=
PLAYORDER=
